<?xml version="1.0" encoding="utf-8"?>
<!-- Generator: Adobe Illustrator 16.0.0, SVG Export Plug-In . SVG Version: 6.00 Build 0)  -->
<!DOCTYPE svg PUBLIC "-//W3C//DTD SVG 1.1//EN" "http://www.w3.org/Graphics/SVG/1.1/DTD/svg11.dtd">
<svg version="1.1" id="Layer_1" xmlns="http://www.w3.org/2000/svg" xmlns:xlink="http://www.w3.org/1999/xlink" x="0px" y="0px"
	 width="800px" height="800px" viewBox="0 0 800 800" enable-background="new 0 0 800 800" xml:space="preserve">
<g>
	<path d="M186.889,382.5c-0.63-1.89-1.05-3.045-1.05-9.03v-11.549c0-6.825-2.31-9.345-7.56-9.345h-3.99V382.5h-11.55v-73.497h17.429
		c11.97,0,17.115,5.565,17.115,16.904v5.775c0,7.56-2.415,12.39-7.56,14.804v0.21c5.775,2.415,7.665,7.875,7.665,15.54v11.339
		c0,3.57,0.105,6.195,1.26,8.925H186.889z M174.29,319.502v22.574h4.515c4.305,0,6.93-1.89,6.93-7.77v-7.245
		c0-5.25-1.785-7.56-5.88-7.56H174.29z"/>
	<path d="M204.004,326.642c0-11.759,6.195-18.479,17.534-18.479c11.34,0,17.534,6.72,17.534,18.479v38.219
		c0,11.759-6.194,18.479-17.534,18.479c-11.339,0-17.534-6.72-17.534-18.479V326.642z M215.554,365.596
		c0,5.25,2.31,7.245,5.985,7.245s5.985-1.995,5.985-7.245v-39.688c0-5.25-2.31-7.245-5.985-7.245s-5.985,1.995-5.985,7.245V365.596z
		"/>
	<path d="M263.853,341.552h16.169v23.309c0,11.759-5.88,18.479-17.219,18.479s-17.219-6.72-17.219-18.479v-38.219
		c0-11.759,5.88-18.479,17.219-18.479s17.219,6.72,17.219,18.479v7.14h-10.919v-7.875c0-5.25-2.31-7.245-5.985-7.245
		s-5.985,1.995-5.985,7.245v39.688c0,5.25,2.31,7.14,5.985,7.14s5.985-1.89,5.985-7.14v-13.544h-5.25V341.552z"/>
	<path d="M299.028,339.977h15.854v10.5h-15.854V372h19.949v10.5h-31.499v-73.497h31.499v10.5h-19.949V339.977z"/>
	<path d="M350.267,382.5c-0.63-1.89-1.05-3.045-1.05-9.03v-11.549c0-6.825-2.31-9.345-7.56-9.345h-3.99V382.5h-11.55v-73.497h17.429
		c11.97,0,17.115,5.565,17.115,16.904v5.775c0,7.56-2.415,12.39-7.56,14.804v0.21c5.775,2.415,7.665,7.875,7.665,15.54v11.339
		c0,3.57,0.105,6.195,1.26,8.925H350.267z M337.668,319.502v22.574h4.515c4.305,0,6.93-1.89,6.93-7.77v-7.245
		c0-5.25-1.785-7.56-5.88-7.56H337.668z"/>
	<path d="M396.152,341.657h14.909v10.5h-14.909V382.5h-11.55v-73.497h30.554v10.5h-19.004V341.657z"/>
	<path d="M432.271,339.977h15.854v10.5h-15.854V372h19.949v10.5h-31.499v-73.497h31.499v10.5h-19.949V339.977z"/>
	<path d="M459.361,309.003h18.27c11.549,0,17.219,6.405,17.219,18.165v37.168c0,11.759-5.67,18.164-17.219,18.164h-18.27V309.003z
		 M470.911,319.502V372h6.51c3.675,0,5.88-1.89,5.88-7.14v-38.219c0-5.25-2.205-7.14-5.88-7.14H470.911z"/>
	<path d="M513.75,339.977h15.854v10.5H513.75V372h19.949v10.5H502.2v-73.497h31.499v10.5H513.75V339.977z"/>
	<path d="M564.988,382.5c-0.629-1.89-1.049-3.045-1.049-9.03v-11.549c0-6.825-2.311-9.345-7.561-9.345h-3.989V382.5h-11.55v-73.497
		h17.43c11.969,0,17.114,5.565,17.114,16.904v5.775c0,7.56-2.415,12.39-7.56,14.804v0.21c5.774,2.415,7.664,7.875,7.664,15.54
		v11.339c0,3.57,0.105,6.195,1.26,8.925H564.988z M552.39,319.502v22.574h4.515c4.305,0,6.93-1.89,6.93-7.77v-7.245
		c0-5.25-1.785-7.56-5.88-7.56H552.39z"/>
	<path d="M594.599,339.977h15.854v10.5h-15.854V372h19.949v10.5h-31.499v-73.497h31.499v10.5h-19.949V339.977z"/>
	<path d="M645.838,382.5c-0.631-1.89-1.051-3.045-1.051-9.03v-11.549c0-6.825-2.31-9.345-7.559-9.345h-3.99V382.5h-11.55v-73.497
		h17.429c11.971,0,17.115,5.565,17.115,16.904v5.775c0,7.56-2.415,12.39-7.561,14.804v0.21c5.775,2.415,7.666,7.875,7.666,15.54
		v11.339c0,3.57,0.104,6.195,1.26,8.925H645.838z M633.238,319.502v22.574h4.515c4.305,0,6.93-1.89,6.93-7.77v-7.245
		c0-5.25-1.784-7.56-5.88-7.56H633.238z"/>
</g>
</svg>
