<?xml version="1.0" encoding="utf-8"?>
<!-- Generator: Adobe Illustrator 16.0.0, SVG Export Plug-In . SVG Version: 6.00 Build 0)  -->
<!DOCTYPE svg PUBLIC "-//W3C//DTD SVG 1.1//EN" "http://www.w3.org/Graphics/SVG/1.1/DTD/svg11.dtd">
<svg version="1.1" id="Layer_1" xmlns="http://www.w3.org/2000/svg" xmlns:xlink="http://www.w3.org/1999/xlink" x="0px" y="0px"
	 width="800px" height="800px" viewBox="0 0 800 800" enable-background="new 0 0 800 800" xml:space="preserve">
<g>
	<path d="M53.773,317.281h14.856v21.416c0,10.804-5.402,16.978-15.82,16.978c-10.418,0-15.821-6.174-15.821-16.978v-35.114
		c0-10.804,5.402-16.978,15.821-16.978c10.418,0,15.82,6.174,15.82,16.978v6.56H58.597v-7.235c0-4.823-2.122-6.656-5.499-6.656
		c-3.376,0-5.499,1.833-5.499,6.656v36.464c0,4.824,2.123,6.56,5.499,6.56c3.376,0,5.499-1.736,5.499-6.56v-12.444h-4.823V317.281z"
		/>
	<path d="M97.668,354.902c-0.579-1.736-0.965-2.797-0.965-8.296v-10.611c0-6.271-2.122-8.585-6.945-8.585h-3.666v27.493H75.48
		v-67.526h16.014c10.997,0,15.724,5.113,15.724,15.531v5.306c0,6.945-2.219,11.383-6.946,13.602v0.193
		c5.306,2.219,7.042,7.235,7.042,14.277v10.418c0,3.28,0.097,5.691,1.158,8.2H97.668z M86.092,297.022v20.74h4.148
		c3.955,0,6.367-1.736,6.367-7.138v-6.656c0-4.823-1.64-6.946-5.402-6.946H86.092z"/>
	<path d="M148.604,354.902h-10.708l-1.833-12.251h-13.023l-1.833,12.251h-9.743l10.804-67.526H137.8L148.604,354.902z
		 M124.391,333.487h10.225l-5.016-34.149h-0.193L124.391,333.487z"/>
	<path d="M163.172,305.994h-0.193v48.908h-9.55v-67.526h13.312l10.708,40.419h0.193v-40.419h9.454v67.526h-10.9L163.172,305.994z"/>
	<path d="M194.718,287.376h16.785c10.611,0,15.821,5.885,15.821,16.689v34.149c0,10.804-5.209,16.688-15.821,16.688h-16.785V287.376
		z M205.329,297.022v48.233h5.981c3.376,0,5.402-1.736,5.402-6.56v-35.114c0-4.823-2.026-6.56-5.402-6.56H205.329z"/>
	<path d="M263.308,286.604c10.322,0,15.627,6.174,15.627,16.978v2.122h-10.033v-2.797c0-4.823-1.929-6.656-5.306-6.656
		c-3.376,0-5.306,1.833-5.306,6.656c0,4.92,2.123,8.585,9.068,14.663c8.875,7.814,11.672,13.409,11.672,21.126
		c0,10.804-5.402,16.978-15.82,16.978s-15.82-6.174-15.82-16.978v-4.148h10.032v4.823c0,4.824,2.123,6.56,5.499,6.56
		c3.376,0,5.499-1.736,5.499-6.56c0-4.919-2.123-8.585-9.068-14.663c-8.875-7.814-11.672-13.409-11.672-21.126
		C247.68,292.778,252.986,286.604,263.308,286.604z"/>
	<path d="M285.11,287.376h10.611v57.88h17.46v9.646H285.11V287.376z"/>
	<path d="M352.155,354.902h-10.708l-1.833-12.251h-13.023l-1.833,12.251h-9.743l10.804-67.526h15.531L352.155,354.902z
		 M327.942,333.487h10.225l-5.016-34.149h-0.193L327.942,333.487z"/>
	<path d="M379.458,335.32h0.193l7.139-47.944h14.76v67.526h-10.033v-48.426h-0.193l-7.138,48.426h-10.033l-7.717-47.75h-0.193v47.75
		h-9.261v-67.526h14.759L379.458,335.32z"/>
	<path d="M454.992,329.725v8.972c0,10.804-5.402,16.978-15.82,16.978s-15.82-6.174-15.82-16.978v-35.114
		c0-10.804,5.402-16.978,15.82-16.978s15.82,6.174,15.82,16.978v6.56H444.96v-7.235c0-4.823-2.122-6.656-5.499-6.656
		c-3.375,0-5.498,1.833-5.498,6.656v36.464c0,4.824,2.123,6.56,5.498,6.56c3.377,0,5.499-1.736,5.499-6.56v-9.646H454.992z"/>
	<path d="M472.068,354.902h-10.611v-67.526h10.611v28.94h12.059v-28.94h10.804v67.526h-10.804v-28.94h-12.059V354.902z"/>
	<path d="M536.991,354.902h-10.707l-1.833-12.251h-13.023l-1.832,12.251h-9.743l10.804-67.526h15.531L536.991,354.902z
		 M512.778,333.487h10.226l-5.017-34.149h-0.192L512.778,333.487z"/>
	<path d="M564.293,335.32h0.193l7.139-47.944h14.759v67.526h-10.032v-48.426h-0.192l-7.139,48.426h-10.032l-7.718-47.75h-0.193
		v47.75h-9.261v-67.526h14.76L564.293,335.32z"/>
	<path d="M625.551,304.065v8.778c0,10.804-5.209,16.688-15.82,16.688h-5.017v25.371h-10.611v-67.526h15.628
		C620.342,287.376,625.551,293.261,625.551,304.065z M604.714,297.022v22.863h5.017c3.376,0,5.209-1.543,5.209-6.367V303.39
		c0-4.823-1.833-6.367-5.209-6.367H604.714z"/>
	<path d="M630.473,287.376h10.611v67.526h-10.611V287.376z"/>
	<path d="M647.933,303.583c0-10.804,5.691-16.978,16.11-16.978c10.418,0,16.109,6.174,16.109,16.978v35.114
		c0,10.804-5.691,16.978-16.109,16.978c-10.419,0-16.11-6.174-16.11-16.978V303.583z M658.544,339.371
		c0,4.824,2.122,6.656,5.499,6.656c3.376,0,5.498-1.833,5.498-6.656v-36.464c0-4.823-2.122-6.656-5.498-6.656
		c-3.377,0-5.499,1.833-5.499,6.656V339.371z"/>
	<path d="M696.65,305.994h-0.192v48.908h-9.551v-67.526h13.312l10.708,40.419h0.193v-40.419h9.453v67.526h-10.9L696.65,305.994z"/>
	<path d="M742.474,286.604c10.321,0,15.627,6.174,15.627,16.978v2.122h-10.032v-2.797c0-4.823-1.929-6.656-5.306-6.656
		c-3.376,0-5.306,1.833-5.306,6.656c0,4.92,2.122,8.585,9.068,14.663c8.875,7.814,11.672,13.409,11.672,21.126
		c0,10.804-5.402,16.978-15.82,16.978s-15.82-6.174-15.82-16.978v-4.148h10.032v4.823c0,4.824,2.122,6.56,5.499,6.56
		c3.376,0,5.498-1.736,5.498-6.56c0-4.919-2.122-8.585-9.067-14.663c-8.875-7.814-11.673-13.409-11.673-21.126
		C726.846,292.778,732.151,286.604,742.474,286.604z"/>
</g>
</svg>
