<?xml version="1.0" encoding="utf-8"?>
<!-- Generator: Adobe Illustrator 16.0.0, SVG Export Plug-In . SVG Version: 6.00 Build 0)  -->
<!DOCTYPE svg PUBLIC "-//W3C//DTD SVG 1.1//EN" "http://www.w3.org/Graphics/SVG/1.1/DTD/svg11.dtd">
<svg version="1.1" id="Layer_1" xmlns="http://www.w3.org/2000/svg" xmlns:xlink="http://www.w3.org/1999/xlink" x="0px" y="0px"
	 width="800px" height="800px" viewBox="0 0 800 800" enable-background="new 0 0 800 800" xml:space="preserve">
<g>
	<path d="M217.144,332.123H205.49l-1.995-13.334H189.32l-1.995,13.334h-10.604l11.76-73.497h16.904L217.144,332.123z
		 M190.791,308.813h11.129l-5.46-37.168h-0.21L190.791,308.813z"/>
	<path d="M233,278.89h-0.21v53.233h-10.395v-73.497h14.49l11.654,43.993h0.21v-43.993h10.29v73.497h-11.864L233,278.89z"/>
	<path d="M267.334,258.625h18.27c11.549,0,17.219,6.405,17.219,18.165v37.168c0,11.759-5.67,18.164-17.219,18.164h-18.27V258.625z
		 M278.884,269.125v52.498h6.51c3.675,0,5.879-1.89,5.879-7.14v-38.219c0-5.25-2.205-7.14-5.879-7.14H278.884z"/>
	<path d="M319.413,307.764l-14.594-49.138h12.075l8.714,33.494h0.21l8.715-33.494h11.024l-14.594,49.138v24.359h-11.55V307.764z"/>
	<path d="M390.812,310.809h0.21l7.77-52.183h16.064v73.497h-10.92v-52.708h-0.209l-7.77,52.708h-10.919l-8.4-51.973h-0.21v51.973
		h-10.08v-73.497h16.064L390.812,310.809z"/>
	<path d="M434.281,258.625v56.698c0,5.25,2.309,7.14,5.984,7.14c3.674,0,5.984-1.89,5.984-7.14v-56.698h10.92v55.963
		c0,11.759-5.88,18.479-17.22,18.479c-11.339,0-17.22-6.72-17.22-18.479v-55.963H434.281z"/>
	<path d="M489.194,332.123c-0.63-1.89-1.05-3.045-1.05-9.03v-11.549c0-6.825-2.311-9.345-7.56-9.345h-3.989v29.924h-11.551v-73.497
		h17.43c11.97,0,17.115,5.565,17.115,16.904v5.775c0,7.56-2.416,12.39-7.561,14.804v0.21c5.775,2.415,7.665,7.875,7.665,15.54
		v11.339c0,3.57,0.104,6.195,1.26,8.925H489.194z M476.596,269.125v22.574h4.514c4.305,0,6.93-1.89,6.93-7.77v-7.245
		c0-5.25-1.784-7.56-5.879-7.56H476.596z"/>
	<path d="M531.403,332.123c-0.63-1.89-1.05-3.045-1.05-9.03v-11.549c0-6.825-2.311-9.345-7.56-9.345h-3.989v29.924h-11.551v-73.497
		h17.43c11.97,0,17.115,5.565,17.115,16.904v5.775c0,7.56-2.416,12.39-7.561,14.804v0.21c5.775,2.415,7.665,7.875,7.665,15.54
		v11.339c0,3.57,0.104,6.195,1.26,8.925H531.403z M518.805,269.125v22.574h4.514c4.305,0,6.93-1.89,6.93-7.77v-7.245
		c0-5.25-1.784-7.56-5.879-7.56H518.805z"/>
	<path d="M586.842,332.123h-11.654l-1.994-13.334h-14.175l-1.995,13.334h-10.604l11.76-73.497h16.904L586.842,332.123z
		 M560.488,308.813h11.13l-5.46-37.168h-0.21L560.488,308.813z"/>
	<path d="M597.868,307.764l-14.595-49.138h12.075l8.714,33.494h0.211l8.715-33.494h11.023l-14.594,49.138v24.359h-11.55V307.764z"/>
</g>
</svg>
