<?xml version="1.0" encoding="utf-8"?>
<!-- Generator: Adobe Illustrator 16.0.0, SVG Export Plug-In . SVG Version: 6.00 Build 0)  -->
<!DOCTYPE svg PUBLIC "-//W3C//DTD SVG 1.1//EN" "http://www.w3.org/Graphics/SVG/1.1/DTD/svg11.dtd">
<svg version="1.1" id="Layer_1" xmlns="http://www.w3.org/2000/svg" xmlns:xlink="http://www.w3.org/1999/xlink" x="0px" y="0px"
	 width="800px" height="800px" viewBox="0 0 800 800" enable-background="new 0 0 800 800" xml:space="preserve">
<g>
	<path d="M213.664,392.327c-0.63-1.89-1.05-3.045-1.05-9.03v-11.549c0-6.825-2.31-9.345-7.56-9.345h-3.99v29.924h-11.55V318.83
		h17.429c11.97,0,17.115,5.565,17.115,16.904v5.775c0,7.56-2.415,12.39-7.56,14.804v0.21c5.775,2.415,7.665,7.875,7.665,15.54
		v11.339c0,3.57,0.105,6.195,1.26,8.925H213.664z M201.064,329.329v22.574h4.515c4.305,0,6.93-1.89,6.93-7.77v-7.245
		c0-5.25-1.785-7.56-5.88-7.56H201.064z"/>
	<path d="M269.103,392.327h-11.654l-1.995-13.334h-14.174l-1.995,13.334h-10.605l11.76-73.497h16.904L269.103,392.327z
		 M242.749,369.018h11.129l-5.46-37.168h-0.21L242.749,369.018z"/>
	<path d="M286.008,351.483h14.909v10.5h-14.909v30.344h-11.55V318.83h30.554v10.5h-19.004V351.483z"/>
	<path d="M346.593,392.327h-11.654l-1.995-13.334h-14.174l-1.995,13.334h-10.605l11.76-73.497h16.904L346.593,392.327z
		 M320.239,369.018h11.129l-5.46-37.168h-0.21L320.239,369.018z"/>
	<path d="M363.499,349.803h15.854v10.5h-15.854v21.524h19.949v10.5h-31.499V318.83h31.499v10.5h-19.949V349.803z"/>
	<path d="M390.589,318.83h11.55v62.998h19.004v10.5h-30.554V318.83z"/>
	<path d="M452.957,339.094h-0.21v53.233h-10.395V318.83h14.489l11.654,43.993h0.211V318.83h10.289v73.497h-11.864L452.957,339.094z"
		/>
	<path d="M524.67,392.327h-11.654l-1.995-13.334h-14.175l-1.994,13.334h-10.605l11.76-73.497h16.904L524.67,392.327z
		 M498.316,369.018h11.129l-5.459-37.168h-0.211L498.316,369.018z"/>
	<path d="M530.025,318.83h18.27c11.55,0,17.22,6.405,17.22,18.165v37.168c0,11.759-5.67,18.164-17.22,18.164h-18.27V318.83z
		 M541.576,329.329v52.498h6.51c3.674,0,5.879-1.89,5.879-7.14v-38.219c0-5.25-2.205-7.14-5.879-7.14H541.576z"/>
	<path d="M610.14,392.327h-11.655l-1.994-13.334h-14.175l-1.995,13.334h-10.604l11.76-73.497h16.904L610.14,392.327z
		 M583.785,369.018h11.13l-5.46-37.168h-0.21L583.785,369.018z"/>
	<path d="M615.496,318.83h11.549v62.998h19.005v10.5h-30.554V318.83z"/>
</g>
</svg>
