<?xml version="1.0" encoding="utf-8"?>
<!-- Generator: Adobe Illustrator 16.0.0, SVG Export Plug-In . SVG Version: 6.00 Build 0)  -->
<!DOCTYPE svg PUBLIC "-//W3C//DTD SVG 1.1//EN" "http://www.w3.org/Graphics/SVG/1.1/DTD/svg11.dtd">
<svg version="1.1" id="Layer_1" xmlns="http://www.w3.org/2000/svg" xmlns:xlink="http://www.w3.org/1999/xlink" x="0px" y="0px"
	 width="800px" height="800px" viewBox="0 0 800 800" enable-background="new 0 0 800 800" xml:space="preserve">
<g>
	<path d="M151.416,326.849h-0.21v53.233h-10.395v-73.497h14.49l11.654,43.993h0.21v-43.993h10.29v73.497H165.59L151.416,326.849z"/>
	<path d="M184.805,324.224c0-11.759,6.195-18.479,17.534-18.479c11.34,0,17.534,6.72,17.534,18.479v38.218
		c0,11.76-6.194,18.479-17.534,18.479c-11.339,0-17.534-6.72-17.534-18.479V324.224z M196.354,363.178
		c0,5.25,2.31,7.245,5.985,7.245s5.985-1.995,5.985-7.245v-39.688c0-5.25-2.31-7.245-5.985-7.245s-5.985,1.995-5.985,7.245V363.178z
		"/>
	<path d="M244.549,366.537h0.21l8.715-59.952h10.604l-11.339,73.497H235.52l-11.34-73.497h11.655L244.549,366.537z"/>
	<path d="M304.188,380.082h-11.654l-1.995-13.334h-14.174l-1.995,13.334h-10.604l11.76-73.497h16.904L304.188,380.082z
		 M277.835,356.773h11.129l-5.46-37.169h-0.21L277.835,356.773z"/>
	<path d="M324.665,350.788l-3.57,6.72v22.574h-11.55v-73.497h11.55v31.814h0.21l14.909-31.814h11.55l-16.064,32.759l16.064,40.738
		h-11.865L324.665,350.788z"/>
	<path d="M369.288,306.585h18.27c11.549,0,17.22,6.405,17.22,18.165v37.168c0,11.76-5.67,18.164-17.22,18.164h-18.27V306.585z
		 M380.838,317.084v52.498h6.51c3.675,0,5.879-1.89,5.879-7.14v-38.218c0-5.25-2.205-7.14-5.879-7.14H380.838z"/>
	<path d="M408.977,369.582c1.261,0.105,2.73,0.105,3.99,0.105c3.676,0,6.615-1.365,6.615-7.035v-56.067h11.549v55.228
		c0,14.699-7.875,18.479-16.59,18.479c-2.1,0-3.674,0-5.564-0.21V369.582z"/>
	<path d="M438.062,324.224c0-11.759,6.193-18.479,17.533-18.479s17.535,6.72,17.535,18.479v38.218
		c0,11.76-6.195,18.479-17.535,18.479s-17.533-6.72-17.533-18.479V324.224z M449.611,363.178c0,5.25,2.311,7.245,5.984,7.245
		c3.676,0,5.984-1.995,5.984-7.245v-39.688c0-5.25-2.309-7.245-5.984-7.245c-3.674,0-5.984,1.995-5.984,7.245V363.178z"/>
	<path d="M495.705,350.788l-3.57,6.72v22.574h-11.549v-73.497h11.549v31.814h0.211l14.91-31.814h11.549l-16.064,32.759
		l16.064,40.738h-11.865L495.705,350.788z"/>
	<path d="M522.377,324.224c0-11.759,6.193-18.479,17.533-18.479s17.535,6.72,17.535,18.479v38.218
		c0,11.76-6.195,18.479-17.535,18.479s-17.533-6.72-17.533-18.479V324.224z M533.926,363.178c0,5.25,2.311,7.245,5.984,7.245
		c3.676,0,5.984-1.995,5.984-7.245v-39.688c0-5.25-2.309-7.245-5.984-7.245c-3.674,0-5.984,1.995-5.984,7.245V363.178z"/>
	<path d="M582.121,366.537h0.211l8.715-59.952h10.604l-11.34,73.497h-17.219l-11.34-73.497h11.654L582.121,366.537z"/>
	<path d="M607.006,306.585h11.549v73.497h-11.549V306.585z"/>
	<path d="M660.447,352.678v9.765c0,11.76-5.879,18.479-17.219,18.479s-17.219-6.72-17.219-18.479v-38.218
		c0-11.759,5.879-18.479,17.219-18.479s17.219,6.72,17.219,18.479v7.14h-10.92v-7.875c0-5.25-2.309-7.245-5.984-7.245
		c-3.674,0-5.984,1.995-5.984,7.245v39.688c0,5.25,2.311,7.14,5.984,7.14c3.676,0,5.984-1.89,5.984-7.14v-10.5H660.447z"/>
</g>
</svg>
